<svg width="14" height="15" viewBox="0 0 14 15" fill="none" xmlns="http://www.w3.org/2000/svg">
<path d="M7.0974 6.84018C7.03906 6.83435 6.96906 6.83435 6.9049 6.84018C5.51656 6.79352 4.41406 5.65602 4.41406 4.25602C4.41406 2.82685 5.56906 1.66602 7.00406 1.66602C8.43323 1.66602 9.59406 2.82685 9.59406 4.25602C9.58823 5.65602 8.48573 6.79352 7.0974 6.84018Z" stroke="#030733" strokeWidth="0.875" strokeLinecap="round" strokeLinejoin="round"/>
<path d="M4.17594 8.99398C2.76427 9.93898 2.76427 11.479 4.17594 12.4182C5.7801 13.4915 8.41094 13.4915 10.0151 12.4182C11.4268 11.4732 11.4268 9.93315 10.0151 8.99398C8.41677 7.92648 5.78594 7.92648 4.17594 8.99398Z" stroke="#030733" strokeWidth="0.875" strokeLinecap="round" strokeLinejoin="round"/>
</svg>
