<svg height="42" viewBox="0 0 181 56" fill="none" xmlns="http://www.w3.org/2000/svg">
<g clip-path="url(#clip0)">
<path d="M67.3 45.7004V18.6004H70.8L72 20.2004C72.9 19.5004 73.9 18.9004 75 18.5004C76.1 18.1004 77.2 17.9004 78.4 17.9004C81.4 17.9004 83.7 18.8004 85.2 20.7004C86.7 22.7004 87.5 25.1004 87.4 27.6004C87.5 30.2004 86.7 32.7004 85.2 34.7004C83.7 36.7004 81.3 37.6004 78 37.6004C77.4 37.6004 76.7 37.5004 76.1 37.4004C75.5 37.2004 74.9 37.0004 74.3 36.8004V45.3004L67.3 45.7004ZM80.1 27.8004C80.1 26.8004 79.8 25.7004 79.2 24.9004C78.6 24.1004 77.6 23.6004 76.6 23.7004C76.2 23.7004 75.7 23.8004 75.3 23.9004C75 24.0004 74.6 24.2004 74.3 24.3004V30.9004C74.7 31.3004 75.2 31.5004 75.7 31.7004C76.2 31.9004 76.7 32.0004 77.2 32.0004C78.2 32.1004 79.1 31.5004 79.5 30.6004C79.9 29.7004 80.1 28.8004 80.1 27.8004Z" fill="#FFFFFF"/>
<path d="M90.6001 37.3V18.6H94.1001L95.8001 20.5C96.7001 19.9 97.6001 19.5 98.5001 19.1C99.5001 18.7 100.6 18.5 101.7 18.5L103.1 24.1C102.1 24.1 101.2 24.2 100.2 24.5C99.2001 24.7 98.3001 25.2 97.5001 25.8V37.2H90.6001V37.3Z" fill="#FFFFFF"/>
<path d="M104.8 27.7999C104.6 24.9999 105.8 22.2999 107.9 20.4999C112.3 16.9999 118.6 16.9999 123 20.3999C125 22.0999 126 24.5999 126 27.8999C126.2 30.6999 125 33.2999 122.9 35.0999C120.7 36.7999 118 37.6999 115.3 37.5999C112.6 37.6999 109.9 36.7999 107.8 35.1999C105.8 33.5999 104.8 31.1999 104.8 27.7999ZM112 27.7999C112 28.8999 112.3 29.8999 112.8 30.7999C113.4 31.5999 114.3 31.9999 115.2 31.9999C116.2 32.0999 117.1 31.6999 117.8 30.9999C118.5 30.0999 118.8 29.0999 118.7 27.9999C118.7 26.8999 118.4 25.7999 117.9 24.8999C117.4 24.0999 116.4 23.5999 115.5 23.6999C114.5 23.5999 113.6 24.0999 112.9 24.7999C112.3 25.5999 111.9 26.6999 112 27.7999Z" fill="#FFFFFF"/>
<path d="M140.8 37.3L137.5 33.3L134.3 37.3H126.4L133.3 28L126.4 19.5L133.7 18.5L137.3 23.1L140.9 18.6H148.7L141.6 28.4L148.7 37.3H140.8Z" fill="#FFFFFF"/>
<path d="M154.4 16.0004C153.4 16.0004 152.4 15.6004 151.7 14.9004C151 14.2004 150.6 13.2004 150.6 12.2004C150.6 11.2004 151 10.2004 151.7 9.50039C152.4 8.80039 153.4 8.40039 154.4 8.40039C156.5 8.40039 158.2 10.1004 158.3 12.2004C158.3 13.2004 157.9 14.2004 157.2 14.9004C156.4 15.6004 155.5 16.0004 154.4 16.0004ZM151 37.3004V18.6004H158V37.3004H151Z" fill="#FFFFFF"/>
<path d="M161.2 28.0004C161 25.2004 162.1 22.5004 164.1 20.6004C166.1 18.8004 168.6 17.9004 171.3 17.9004C174.3 17.9004 176.5 18.9004 178 20.8004C179.5 22.8004 180.3 25.2004 180.2 27.6004V30.0004H168.8C169.1 30.7004 169.6 31.2004 170.2 31.5004C170.9 31.8004 171.7 32.0004 172.5 32.0004C173.3 32.0004 174.2 31.9004 175 31.8004C175.8 31.7004 176.6 31.4004 177.4 31.0004L179.4 35.8004C178.2 36.6004 176.8 37.2004 175.4 37.3004C174.2 37.5004 173 37.6004 171.8 37.6004C169.1 37.7004 166.4 36.9004 164.2 35.3004C162.2 33.8004 161.2 31.3004 161.2 28.0004ZM173.5 25.9004C173.4 25.4004 173.2 24.9004 172.9 24.4004C172.5 23.8004 171.8 23.5004 171 23.6004C170.4 23.6004 169.9 23.8004 169.4 24.2004C169 24.7004 168.7 25.3004 168.5 25.9004H173.5Z" fill="#FFFFFF"/>
<path d="M28 0C22.9 0 18.7 4.2 18.7 9.3V18.6H9.3C4.2 18.7 0 22.9 0 28C0 33.1 4.2 37.3 9.3 37.3H37.3V9.3C37.3 4.2 33.1 0 28 0ZM33.1 33.1H9.3C6.5 33.1 4.2 30.8 4.2 28C4.2 25.2 6.5 22.9 9.3 22.9H22.9V9.3C22.9 6.5 25.2 4.2 28 4.2C30.8 4.2 33.1 6.5 33.1 9.3V33.1Z" fill="url(#paint0_linear)"/>
<path d="M33.0999 39.9004V46.7004C33.0999 49.5004 30.8 51.8004 28 51.8004C25.2 51.8004 22.9 49.5004 22.9 46.7004V39.9004H18.7V46.7004C18.7 51.9004 22.9 56.0004 28 56.0004C33.1 56.0004 37.2999 51.8004 37.2999 46.7004V39.9004H33.0999Z" fill="url(#paint1_linear)"/>
<path d="M46.6999 18.7002H39.8999V22.9002H46.6999C49.4999 22.9002 51.7999 25.2002 51.7999 28.0002C51.7999 30.8002 49.4999 33.1002 46.6999 33.1002H39.8999V37.3002H46.6999C51.7999 37.3002 55.9999 33.1002 55.9999 28.0002C55.9999 22.9002 51.7999 18.7002 46.6999 18.7002Z" fill="url(#paint2_linear)"/>
</g>
<defs>
<linearGradient id="paint0_linear" x1="12.0764" y1="12.0764" x2="37.33" y2="37.33" gradientUnits="userSpaceOnUse">
<stop stop-color="#B30AF6"/>
<stop offset="1" stop-color="#6771F9"/>
</linearGradient>
<linearGradient id="paint1_linear" x1="31.1814" y1="48.4289" x2="21.0513" y2="38.0789" gradientUnits="userSpaceOnUse">
<stop stop-color="#03E5F5"/>
<stop offset="1" stop-color="#6771F9"/>
</linearGradient>
<linearGradient id="paint2_linear" x1="48.5717" y1="31.4185" x2="38.4517" y2="21.0685" gradientUnits="userSpaceOnUse">
<stop stop-color="#03E5F5"/>
<stop offset="1" stop-color="#6771F9"/>
</linearGradient>
<clipPath id="clip0">
<rect width="180.2" height="56" fill="white"/>
</clipPath>
</defs>
</svg>
