<svg width="14" height="15" viewBox="0 0 14 15" fill="none" xmlns="http://www.w3.org/2000/svg">
<g clipPath="url(#clip0_4269_17850)">
<path d="M5.19847 11.4659C5.19847 12.0813 5.68104 12.5639 6.2964 12.5639L5.19847 11.4659ZM5.19847 11.4659C5.19847 11.0051 5.48312 10.5892 5.91986 10.435M5.19847 11.4659L5.91986 10.435M5.91986 10.435C6.04174 10.4029 6.13026 10.2834 6.13026 10.1616L6.1301 6.10862C6.1301 6.05389 6.14804 6.01345 6.17462 5.98686C6.20119 5.96027 6.24163 5.9423 6.29642 5.9423C6.35115 5.9423 6.3916 5.96024 6.41819 5.98682C6.44478 6.01339 6.46275 6.05383 6.46275 6.10862V10.1382C6.46275 10.26 6.55106 10.3795 6.67317 10.4117C7.10989 10.5659 7.39453 10.9817 7.39453 11.4425L5.91986 10.435ZM6.32302 13.4957H6.29644C5.16863 13.4957 4.26685 12.5939 4.26685 11.4661C4.26685 10.8348 4.55982 10.2265 5.07714 9.84353C5.16953 9.78112 5.19849 9.68744 5.19849 9.60267V2.61488C5.19849 1.9995 5.68108 1.51691 6.29645 1.51691C6.91182 1.51691 7.39441 1.9995 7.39441 2.61488V9.60267C7.39441 9.68744 7.42337 9.78112 7.51576 9.84353C8.03341 10.2267 8.32605 10.8118 8.32605 11.4661C8.32605 12.585 7.43839 13.4817 6.32302 13.4957ZM10.0232 5.3432H10.0231H8.62551C8.54041 5.3432 8.46435 5.37186 8.4094 5.42683C8.35446 5.48181 8.32585 5.55786 8.32585 5.64286C8.32585 5.72796 8.35451 5.80402 8.40948 5.85897C8.46446 5.91391 8.54051 5.94252 8.62551 5.94252H10.0231C10.1082 5.94252 10.1843 5.91386 10.2393 5.85888C10.2942 5.80391 10.3228 5.72786 10.3228 5.64286C10.3228 5.55785 10.2942 5.48183 10.2392 5.42688C10.1843 5.37194 10.1083 5.3433 10.0232 5.3432ZM7.06192 9.95652V6.10863C7.06192 5.67586 6.72922 5.34314 6.29644 5.34314C5.86365 5.34314 5.53095 5.67584 5.53095 6.10863V9.95636C4.96955 10.2323 4.59933 10.826 4.59933 11.466C4.59933 12.4112 5.35121 13.1631 6.29644 13.1631C7.24167 13.1631 7.99355 12.4112 7.99355 11.466C7.99355 10.826 7.62318 10.2323 7.06192 9.95652ZM7.39453 11.4426C7.39437 12.0822 6.91092 12.5639 6.29644 12.5639L7.39453 11.4426ZM7.99355 9.4554V2.61482C7.99355 1.66959 7.24167 0.917708 6.29644 0.917708C5.35121 0.917708 4.59933 1.66959 4.59933 2.61482V9.45531C4.01671 9.95635 3.66771 10.6876 3.66771 11.4661C3.66771 12.9238 4.83893 14.095 6.29665 14.095C7.75436 14.095 8.92558 12.9238 8.92558 11.4661C8.92542 10.6876 8.57621 9.95628 7.99355 9.4554ZM8.62568 2.54808C8.54058 2.54808 8.46452 2.57674 8.40957 2.63172C8.35463 2.68669 8.32602 2.76274 8.32602 2.84774C8.32602 2.93278 8.35469 3.00882 8.40965 3.06378C8.4646 3.11873 8.54065 3.1474 8.62568 3.1474H10.0233C10.1084 3.1474 10.1845 3.11874 10.2394 3.06377C10.2944 3.0088 10.323 2.93275 10.323 2.84774C10.323 2.76264 10.2943 2.68658 10.2393 2.63163C10.1844 2.57669 10.1083 2.54808 10.0233 2.54808H8.62568ZM10.0231 4.54504C10.1082 4.54504 10.1843 4.51638 10.2393 4.46141C10.2942 4.40644 10.3228 4.33039 10.3228 4.24538C10.3228 4.16032 10.2942 4.08425 10.2392 4.02929C10.1843 3.97432 10.1082 3.94572 10.0231 3.94572H8.62551C8.54041 3.94572 8.46435 3.97438 8.4094 4.02936C8.35446 4.08433 8.32585 4.16038 8.32585 4.24538C8.32585 4.33048 8.35451 4.40654 8.40948 4.46149C8.46446 4.51644 8.54051 4.54504 8.62551 4.54504H10.0231ZM10.0231 7.34016C10.1082 7.34016 10.1843 7.3115 10.2393 7.25652C10.2942 7.20155 10.3228 7.1255 10.3228 7.0405C10.3228 6.9555 10.2942 6.87945 10.2393 6.82447C10.1843 6.7695 10.1082 6.74084 10.0231 6.74084H8.62551C8.54041 6.74084 8.46435 6.7695 8.4094 6.82447C8.35446 6.87945 8.32585 6.9555 8.32585 7.0405C8.32585 7.1256 8.35451 7.20166 8.40948 7.25661C8.46446 7.31155 8.54051 7.34016 8.62551 7.34016H10.0231Z" fill="#030733" stroke="#030733" strokeWidth="0.133333"/>
</g>
<defs>
<clipPath id="clip0_4269_17850">
<rect width="14" height="14" fill="white" transform="translate(0 0.5)"/>
</clipPath>
</defs>
</svg>
